<?xml version="1.0" encoding="utf-8"?>
<!-- Generator: Adobe Illustrator 23.0.3, SVG Export Plug-In . SVG Version: 6.00 Build 0)  -->
<svg version="1.1" id="Layer_1" xmlns="http://www.w3.org/2000/svg" xmlns:xlink="http://www.w3.org/1999/xlink" x="0px" y="0px"
	 viewBox="0 0 150 150" style="enable-background:new 0 0 150 150;" xml:space="preserve">
<style type="text/css">
	.st0{fill:none;stroke:#000000;stroke-width:5;stroke-miterlimit:10;}
	.st1{fill:none;stroke:#000000;stroke-width:5;stroke-linecap:round;stroke-miterlimit:10;}
	.st2{fill:none;stroke:#000000;stroke-width:5;stroke-linejoin:round;stroke-miterlimit:10;}
	.st3{fill:none;stroke:#000000;stroke-width:5;stroke-linecap:round;stroke-linejoin:round;stroke-miterlimit:10;}
</style>
<g>
	<path d="M103.8,95.8H51.4c-1.4,0-2.5-1.1-2.5-2.5s1.1-2.5,2.5-2.5h52.5c1.4,0,2.5,1.1,2.5,2.5S105.2,95.8,103.8,95.8z"/>
	<path d="M131.3,95.8h-2.9c-1.4,0-2.5-1.1-2.5-2.5s1.1-2.5,2.5-2.5h2.9c1,0,1.7-0.8,1.7-1.7V70.7c0-2.1-1.7-3.9-3.9-3.9H46
		c-0.9,0-1.7-0.5-2.2-1.3c-0.4-0.8-0.4-1.7,0-2.5l5.9-9.8c3.4-5.9,11.1-5.7,12.2-5.7h24.3c-0.3-0.3-0.5-0.6-0.8-0.9
		c-1.3-1.5-3.4-1.5-3.4-1.5l-46.7,0c-2.7,0.1-4.3,1-5.3,2.1h15.9c0.9,0,1.7,0.5,2.1,1.2c0.5,0.8,0.5,1.7,0.1,2.5l-7.8,14.6
		c-0.4,0.8-1.3,1.3-2.2,1.3H23v16c0,2.9,1.6,5.6,4.1,7c1.2,0.7,1.6,2.2,1,3.4s-2.2,1.6-3.4,1c-4.1-2.3-6.7-6.6-6.7-11.3V64.4
		c0-1.4,1.1-2.5,2.5-2.5h16.1l5.1-9.6H25.9c-0.7,0-1.4-0.3-1.9-0.9c-0.5-0.6-0.7-1.3-0.6-2c0.5-3.1,3.7-8.9,11.8-9.1l46.7,0
		c0.4,0,4.5-0.1,7.3,3.2c2.1,2.5,4.1,5,4.2,5.1c0.6,0.8,0.7,1.8,0.3,2.6s-1.3,1.4-2.2,1.4H61.8c-0.1,0-0.1,0-0.2,0
		c0,0-5.6-0.3-7.6,3.2l-3.6,6h78.7c4.9,0,8.9,4,8.9,8.9v18.4C138,92.8,135,95.8,131.3,95.8z"/>
	<path d="M99.6,66.9c-0.9,0-1.7-0.5-2.2-1.3l-8.1-14.2c-0.7-1.2-0.3-2.7,0.9-3.4c1.2-0.7,2.7-0.3,3.4,0.9l8.1,14.2
		c0.7,1.2,0.3,2.7-0.9,3.4C100.4,66.7,100,66.9,99.6,66.9z"/>
	<path d="M17.3,84.3h-2.7c-3.1,0-5.7-2.5-5.7-5.7V61.8c0-3.1,2.5-5.7,5.7-5.7h2.7c3.1,0,5.7,2.5,5.7,5.7v16.8
		C23,81.7,20.4,84.3,17.3,84.3z M14.6,61.1c-0.4,0-0.7,0.3-0.7,0.7v16.8c0,0.4,0.3,0.7,0.7,0.7h2.7c0.4,0,0.7-0.3,0.7-0.7V61.8
		c0-0.4-0.3-0.7-0.7-0.7H14.6z"/>
	<path d="M38.1,66.9H20.5c-1.4,0-2.5-1.1-2.5-2.5v-5.1c0-11,9.7-16.7,10.1-16.9c1.1-0.6,2.5-0.3,3.2,0.7c0.8,1,0.6,2.4-0.3,3.3
		l-0.9,0.9h15.8c0.9,0,1.7,0.5,2.1,1.2c0.5,0.8,0.5,1.7,0.1,2.5l-7.8,14.6C39.9,66.3,39,66.9,38.1,66.9z M23,61.9h13.6l5.1-9.6H25.1
		c-1.2,1.9-2.1,4.2-2.1,7V61.9z"/>
	<path d="M106,81.6H48.1c-1.4,0-2.5-1.1-2.5-2.5s1.1-2.5,2.5-2.5H106c1.4,0,2.5,1.1,2.5,2.5S107.4,81.6,106,81.6z"/>
	<path d="M135.5,79.8c-0.1,0-0.1,0-0.2,0l-2-0.1h-12.1c-0.7,0-1.3-0.3-1.8-0.8s-0.7-1.2-0.7-1.8c0,0,0-1.1,0-4.1
		c-0.1-7,5.4-10.6,5.6-10.7c0.3-0.2,0.7-0.4,1.1-0.4c4.2-0.4,7.5,0.5,9.7,2.6c2.8,2.5,2.9,5.9,2.9,6.2v6.6c0,0.7-0.3,1.4-0.8,1.8
		C136.8,79.6,136.2,79.8,135.5,79.8z M123.7,74.7h9.3v-4c0,0-0.1-1.5-1.3-2.6c-1.1-1-2.9-1.4-5.2-1.3c-0.9,0.8-2.9,2.9-2.9,6.1
		C123.7,73.6,123.7,74.2,123.7,74.7z"/>
	<path d="M115.5,108.3c-7.7,0-14-6.3-14-14s6.3-14,14-14s14,6.3,14,14S123.3,108.3,115.5,108.3z M115.5,85.2c-5,0-9,4.1-9,9
		s4.1,9,9,9s9-4.1,9-9S120.5,85.2,115.5,85.2z"/>
	<path d="M115.5,101.6c-4,0-7.3-3.3-7.3-7.3s3.3-7.3,7.3-7.3c1.4,0,2.5,1.1,2.5,2.5s-1.1,2.5-2.5,2.5c-1.3,0-2.3,1-2.3,2.3
		s1,2.3,2.3,2.3s2.3-1,2.3-2.3c0-1.4,1.1-2.5,2.5-2.5s2.5,1.1,2.5,2.5C122.9,98.3,119.6,101.6,115.5,101.6z"/>
	<path d="M39,108.3c-7.7,0-14-6.3-14-14s6.3-14,14-14c7.7,0,14,6.3,14,14S46.8,108.3,39,108.3z M39,85.2c-5,0-9,4.1-9,9s4.1,9,9,9
		c5,0,9-4.1,9-9S44,85.2,39,85.2z"/>
	<path d="M39,101.6c-4,0-7.3-3.3-7.3-7.3s3.3-7.3,7.3-7.3c1.4,0,2.5,1.1,2.5,2.5s-1.1,2.5-2.5,2.5c-1.3,0-2.3,1-2.3,2.3
		s1,2.3,2.3,2.3s2.3-1,2.3-2.3c0-1.4,1.1-2.5,2.5-2.5s2.5,1.1,2.5,2.5C46.4,98.3,43.1,101.6,39,101.6z"/>
</g>
</svg>
